PathFileType	4	(X/Y/Z)	F:\MotionCapture\20160217\3\Generated_files\2_Test05-Dynamic.trc
DataRate	CameraRate	NumFrames	NumMarkers	Units	OrigDataRate	OrigDataStartFrame	OrigNumFrames
120.00	120.00	       4	39	mm	120.00	353	       704
Frame#	Time	Top.Head			Front.Head			Rear.Head			R.Shoulder			R.Offset			R.Elbow			R.Wrist			L.Shoulder			L.Elbow			L.Wrist			R.ASIS			L.ASIS			V.Sacral			R.Thigh			R.Knee			R.Shank			R.Ankle			R.Heel			R.Toe			L.Thigh			L.Knee			L.Shank			L.Ankle			L.Heel			L.Toe			R1			R2			R3			R4			R5			R6			R7			L1			L2			L3			L4			L5			L6			L7			V_Mid_ASIS			V_Pelvis_Origin			V_R.Hip_JC			V_L.Hip_JC			V_R.Knee_JC			V_L.Knee_JC			V_R.Ankle_JC			V_L.Ankle_JC			V_Mid_Hip			V_Mid_Shoulder			V_R.Hand			V_L.Hand			V_R.Toe_Offset_Static			V_L.Toe_Offset_Static			V_R.Toe_Offset			V_L.Toe_Offset			
		X1	Y1	Z1	X2	Y2	Z2	X3	Y3	Z3	X4	Y4	Z4	X5	Y5	Z5	X6	Y6	Z6	X7	Y7	Z7	X8	Y8	Z8	X9	Y9	Z9	X10	Y10	Z10	X11	Y11	Z11	X12	Y12	Z12	X13	Y13	Z13	X14	Y14	Z14	X15	Y15	Z15	X16	Y16	Z16	X17	Y17	Z17	X18	Y18	Z18	X19	Y19	Z19	X20	Y20	Z20	X21	Y21	Z21	X22	Y22	Z22	X23	Y23	Z23	X24	Y24	Z24	X25	Y25	Z25	X26	Y26	Z26	X27	Y27	Z27	X28	Y28	Z28	X29	Y29	Z29	X30	Y30	Z30	X31	Y31	Z31	X32	Y32	Z32	X33	Y33	Z33	X34	Y34	Z34	X35	Y35	Z35	X36	Y36	Z36	X37	Y37	Z37	X38	Y38	Z38	X39	Y39	Z39	

353	2.933	526.04749	204.90871	1719.33826	401.67471	201.83585	1656.50061	621.15198	202.41428	1631.60803	536.90814	401.26859	1407.84106	662.10999	129.53481	1263.53003	619.14160	505.75073	1100.29895	565.26257	528.11639	842.19281	508.72739	-6.84844	1408.39709	519.63116	-112.15854	1087.17480	360.63959	-103.38357	881.83276	450.60190	328.59641	943.88300	460.10089	43.35321	932.50702	681.87701	194.55368	934.37872	367.26163	269.89526	592.00085	416.61615	322.22375	465.87543	397.98639	233.89380	238.86479	438.35031	303.16400	62.34261	503.63293	239.53619	41.57514	294.49072	275.62369	43.13046	420.76807	47.10046	596.84753	528.98706	-6.90906	443.46408	615.69208	75.02275	329.70416	879.58826	45.89238	242.23709	901.12518	116.81580	286.44498	866.29413	39.19128	100.84281	248.71053	255.93069	45.16457	287.91202	239.57256	49.37783	386.97443	207.05791	59.60928	462.34866	207.46289	44.77361	471.57016	282.18207	38.68692	395.07626	305.22556	34.26155	329.70581	318.26453	35.01812	847.04584	53.50447	59.06678	851.74103	73.74625	89.12020	851.51636	124.41293	174.01030	880.78693	140.07228	249.96533	906.99310	74.27289	265.33313	903.66913	35.32370	194.28851	890.45587	17.50800	136.86693	
354	2.942	515.33087	205.36238	1721.43628	391.17026	202.01639	1658.89636	610.16400	202.86597	1634.20801	524.76886	401.89551	1410.30798	651.08502	130.93054	1265.87280	603.18213	507.15814	1101.76819	545.37494	528.79419	844.81812	498.24548	-6.54435	1410.57776	511.76636	-112.17712	1089.41504	356.68207	-105.09589	881.31317	439.18674	329.25439	945.51080	449.56049	44.08255	934.68628	671.06281	195.86703	936.38550	361.83163	271.43079	590.27777	413.53104	323.10638	465.63187	397.13297	235.05754	239.05943	434.20346	299.18198	61.52666	503.93958	239.69829	41.51540	294.85269	275.94180	43.21100	402.02127	48.36712	601.98236	504.96497	-8.00826	447.06180	590.63568	74.94811	333.66144	854.84076	46.77673	246.14693	878.72437	118.85191	287.86670	836.33820	36.56333	105.47108	249.34705	256.36716	45.49349	288.39780	239.98019	49.74774	387.13544	207.70567	59.91424	462.56036	207.75560	44.97700	471.78439	282.30914	38.53941	395.10049	305.45401	34.08179	329.74731	318.57568	34.84382	819.43744	50.00109	62.77542	824.17725	70.77976	92.48048	826.51654	123.93688	176.89236	858.06482	141.35231	251.37862	883.51886	75.62373	267.81128	877.07971	35.12146	197.94196	862.38867	16.00238	141.12921	
355	2.950	504.76575	206.10835	1723.91162	380.19193	201.93341	1661.43066	599.50922	203.72229	1636.27026	512.31207	402.11429	1412.70325	639.53271	132.17500	1268.28699	587.20752	508.32883	1103.29138	524.24652	528.87714	847.59253	487.62030	-6.40163	1412.78333	504.13873	-111.90995	1091.98364	352.83228	-106.93768	880.92493	429.56894	330.45392	946.63239	438.45157	44.94314	937.36108	660.27020	197.20457	938.54370	356.67407	272.81808	589.29468	410.86560	324.02246	465.68341	396.64331	235.96919	238.91856	435.33371	300.52988	62.70965	504.12830	239.77962	41.43365	295.17838	276.24438	43.22599	383.66000	49.41452	606.99341	482.20261	-8.51126	450.82022	566.60437	74.79156	336.78629	829.99835	47.44299	248.41878	856.34070	120.02887	288.34464	807.15558	35.45575	108.29768	249.68562	257.02194	46.28089	288.75391	240.31725	50.13334	387.26370	208.28734	60.37064	462.74792	208.10094	45.22843	472.10425	282.44839	38.57682	395.44757	305.90738	33.79953	329.90677	318.86926	34.70662	789.67981	48.07775	64.55308	794.08105	68.96014	95.03394	800.90460	124.30602	178.59578	834.69897	142.01431	252.02202	859.91132	76.45356	268.59000	850.64941	35.02736	199.78984	833.00146	15.34566	143.56438																																																	185.91812	334.19638	-4.69569	
356	2.958	493.72107	206.56911	1725.97095	369.39276	202.04337	1663.96716	588.33704	204.11815	1638.06104	499.81802	402.30945	1414.88855	628.40503	133.62733	1270.35730	571.76257	509.98895	1104.77209	503.04529	528.94720	850.33008	477.24274	-6.45318	1414.62964	496.61935	-112.24235	1094.35193	349.53662	-109.08562	880.22528	418.63428	331.22070	947.74451	427.41061	45.71341	939.36768	649.21429	198.51062	940.76697	351.53265	274.55307	588.32104	408.49774	325.18658	465.69409	395.25177	237.17853	239.05577	435.40567	300.91888	62.67323	504.25986	239.88837	41.38382	295.40121	276.27115	43.15509	365.62143	50.51492	612.75427	459.83948	-9.09124	454.31985	541.79224	74.45150	340.05121	805.25195	47.64201	248.84683	834.04755	119.26546	288.37146	777.17316	35.10818	109.66393	249.74733	257.40228	46.58627	288.93112	240.69830	50.67734	387.33591	208.85301	60.91962	462.73395	208.52243	45.62893	472.50665	282.66452	38.62271	395.88766	306.34213	33.64159	330.03848	319.16370	34.48484	757.72552	47.78608	66.23728	763.85828	68.89173	96.99595	773.86908	124.95155	179.75418	810.82904	142.60297	251.91507	835.40009	76.61034	268.11917	823.83875	35.21535	199.47838	803.53052	14.81706	144.31485	
